# xmcd CD database file
#
# Track frame offsets:
#	150
#	28887
#	48307
#	70475
#	97920
#	121120
#	150055
#	174457
#	202235
#	227557
#	255595
#
# Disc length: 3522 seconds
#
# Revision: 0
# Processed by: cddbd v1.4PL0 Copyright (c) Steve Scherf et al.
# Submitted via: CDex 1.50beta9
#
DISCID=880dc00b
DTITLE=Sean Wilson - 50 Super Songs Vol Ten
DYEAR=1990
DGENRE=Country
TTITLE0=Slaaney Valley - The Old Cabin - An Irish Country Home - Light Of The Moon - The Old Rustic Bride
TTITLE1=The Same Sweet Girl - The Gambler - On The Wall - Life Is Wat YOU Make It Try A Little Kindness
TTITLE2=Snowy Breasted Pearl - I'll Remember You Love - THe Nightinggale - Little Sweethearts - Old Claddaggh Ring
TTITLE3=Will You Visit Me  - Branded Man  - Sing Me Back Home  - Green Willow  - Bunch of Thyme 
TTITLE4=Easy And Slow  - The Old Lobby  - Hear the Wind Blow  - The Ring Your Mother Wore ;Flower Of Sweet Strabane 
TTITLE5=Come Back Paddy Reilly - When God Cones - Macushla  - Mountains Of Mourne - My Green Valleys
TTITLE6=Diane - Papa's Wagon  - Wrong Road Again - Mamma Tried  - The Door Is Always Open
TTITLE7=Tears Of St Anne  - Erne's Lovely Shore - Will You Go Lassie Go  - Slieve Gallen 's Braes - 
TTITLE8=Help Me Mack It Through THe Night - I Wonder Where You Are  - Tell  Me What He's Got - Little Cabin Home - Dim Lights
TTITLE9=The Blacksmith - Twenty One Yars - Galway Bay :Fiddler'S Gr - Brigid Hogan
TTITLE10=shoping
EXTD=YEAR: 1990
EXTT0=
EXTT1=
EXTT2=
EXTT3=
EXTT4=
EXTT5=
EXTT6=
EXTT7=
EXTT8=
EXTT9=
EXTT10=
PLAYORDER=
